<mxfile host="65bd71144e">
    <diagram id="upgzO4bOLaU-IGVJv_RE" name="ページ1">
        <mxGraphModel dx="628" dy="214" grid="1" gridSize="10" guides="1" tooltips="1" connect="1" arrows="1" fold="1" page="1" pageScale="1" pageWidth="827" pageHeight="1169" math="0" shadow="0">
            <root>
                <mxCell id="0"/>
                <mxCell id="1" parent="0"/>
                <mxCell id="56" value="lottery,nutfes.net" style="rounded=1;whiteSpace=wrap;html=1;labelBorderColor=none;fontSize=11;fillColor=default;arcSize=3;verticalAlign=top;" parent="1" vertex="1">
                    <mxGeometry x="320" y="40" width="410" height="220" as="geometry"/>
                </mxCell>
                <mxCell id="59" value="" style="group" parent="1" vertex="1" connectable="0">
                    <mxGeometry x="379.15" y="180" width="140" height="50" as="geometry"/>
                </mxCell>
                <mxCell id="24" value="" style="rounded=0;whiteSpace=wrap;html=1;labelBorderColor=none;" parent="59" vertex="1">
                    <mxGeometry width="140" height="50" as="geometry"/>
                </mxCell>
                <mxCell id="19" value="" style="shape=image;verticalLabelPosition=bottom;labelBackgroundColor=#ffffff;verticalAlign=top;aspect=fixed;imageAspect=0;image=https://www.azciel.co.jp/wp-content/uploads/2020/05/NGINX-logo-rgb-large.png;labelBorderColor=none;" parent="59" vertex="1">
                    <mxGeometry x="10.569999999999993" y="5" width="118.86" height="40" as="geometry"/>
                </mxCell>
                <mxCell id="57" value="Client" style="rounded=1;whiteSpace=wrap;html=1;labelBorderColor=none;fontSize=11;fillColor=default;arcSize=3;verticalAlign=top;" parent="1" vertex="1">
                    <mxGeometry x="90" y="40" width="200" height="220" as="geometry"/>
                </mxCell>
                <mxCell id="18" value="" style="rounded=0;whiteSpace=wrap;html=1;labelBorderColor=none;" parent="1" vertex="1">
                    <mxGeometry x="550.85" y="70" width="140" height="50" as="geometry"/>
                </mxCell>
                <mxCell id="4" value="API" style="rounded=0;whiteSpace=wrap;html=1;labelBorderColor=none;" parent="1" vertex="1">
                    <mxGeometry x="470.85" y="125" width="30" height="25" as="geometry"/>
                </mxCell>
                <mxCell id="3" value="WebSocket" style="rounded=0;whiteSpace=wrap;html=1;labelBorderColor=none;" parent="1" vertex="1">
                    <mxGeometry x="390" y="125" width="70.85" height="25" as="geometry"/>
                </mxCell>
                <mxCell id="12" value="" style="shape=image;verticalLabelPosition=bottom;labelBackgroundColor=#ffffff;verticalAlign=top;aspect=fixed;imageAspect=0;image=https://fastapi.tiangolo.com/img/logo-margin/logo-teal.png;labelBorderColor=none;imageBackground=default;imageBorder=default;" parent="1" vertex="1">
                    <mxGeometry x="380.85" y="70" width="138.3" height="50" as="geometry"/>
                </mxCell>
                <mxCell id="17" value="" style="shape=image;verticalLabelPosition=bottom;labelBackgroundColor=#ffffff;verticalAlign=top;aspect=fixed;imageAspect=0;image=https://upload.wikimedia.org/wikipedia/commons/thumb/3/38/SQLite370.svg/1200px-SQLite370.svg.png;labelBorderColor=none;" parent="1" vertex="1">
                    <mxGeometry x="578.74" y="75" width="84.21" height="40" as="geometry"/>
                </mxCell>
                <mxCell id="21" value="" style="group;labelBorderColor=none;" parent="1" vertex="1" connectable="0">
                    <mxGeometry x="550.85" y="180" width="140" height="51" as="geometry"/>
                </mxCell>
                <mxCell id="16" value="" style="rounded=0;whiteSpace=wrap;html=1;labelBorderColor=none;" parent="21" vertex="1">
                    <mxGeometry width="140" height="50" as="geometry"/>
                </mxCell>
                <mxCell id="15" value="" style="shape=image;verticalLabelPosition=bottom;labelBackgroundColor=#ffffff;verticalAlign=top;aspect=fixed;imageAspect=0;image=https://upload.wikimedia.org/wikipedia/commons/thumb/8/8e/Nextjs-logo.svg/220px-Nextjs-logo.svg.png;labelBorderColor=none;" parent="21" vertex="1">
                    <mxGeometry x="27.5" width="85" height="51" as="geometry"/>
                </mxCell>
                <mxCell id="22" value="" style="shape=cylinder3;whiteSpace=wrap;html=1;boundedLbl=1;backgroundOutline=1;size=4.008659362793026;labelBorderColor=none;" parent="1" vertex="1">
                    <mxGeometry x="605.85" y="127.5" width="30" height="20" as="geometry"/>
                </mxCell>
                <mxCell id="26" value="" style="endArrow=block;startArrow=block;html=1;exitX=0;exitY=0.25;exitDx=0;exitDy=0;labelBorderColor=none;strokeColor=#000000;endFill=0;startFill=0;strokeWidth=1;dashed=1;dashPattern=1 1;" parent="1" source="16" edge="1">
                    <mxGeometry width="50" height="50" relative="1" as="geometry">
                        <mxPoint x="485" y="253" as="sourcePoint"/>
                        <mxPoint x="485" y="153" as="targetPoint"/>
                        <Array as="points">
                            <mxPoint x="485" y="193"/>
                        </Array>
                    </mxGeometry>
                </mxCell>
                <mxCell id="29" value="" style="endArrow=block;startArrow=block;html=1;labelBorderColor=none;strokeColor=#000000;endFill=0;startFill=0;strokeWidth=1;dashed=1;dashPattern=1 1;" parent="1" edge="1">
                    <mxGeometry width="50" height="50" relative="1" as="geometry">
                        <mxPoint x="510" y="140" as="sourcePoint"/>
                        <mxPoint x="590" y="140" as="targetPoint"/>
                    </mxGeometry>
                </mxCell>
                <mxCell id="28" value="" style="endArrow=block;startArrow=block;html=1;exitX=0;exitY=0.5;exitDx=0;exitDy=0;labelBorderColor=none;strokeColor=#000000;endFill=0;startFill=0;strokeWidth=1;dashed=1;dashPattern=1 1;" parent="1" source="16" edge="1">
                    <mxGeometry width="50" height="50" relative="1" as="geometry">
                        <mxPoint x="439.99999999999994" y="255" as="sourcePoint"/>
                        <mxPoint x="440" y="154" as="targetPoint"/>
                        <Array as="points">
                            <mxPoint x="460" y="205"/>
                            <mxPoint x="440" y="205"/>
                        </Array>
                    </mxGeometry>
                </mxCell>
                <mxCell id="33" value="" style="endArrow=block;startArrow=block;html=1;entryX=0;entryY=0.75;entryDx=0;entryDy=0;labelBorderColor=none;strokeColor=#000000;endFill=0;startFill=0;strokeWidth=1;dashed=1;dashPattern=1 1;" parent="1" target="16" edge="1">
                    <mxGeometry width="50" height="50" relative="1" as="geometry">
                        <mxPoint x="291" y="220" as="sourcePoint"/>
                        <mxPoint x="395" y="255" as="targetPoint"/>
                        <Array as="points"/>
                    </mxGeometry>
                </mxCell>
                <mxCell id="38" value="" style="rounded=0;whiteSpace=wrap;html=1;labelBorderColor=none;" parent="1" vertex="1">
                    <mxGeometry x="117.99999999999997" y="112" width="140" height="50" as="geometry"/>
                </mxCell>
                <mxCell id="34" value="" style="shape=image;verticalLabelPosition=bottom;labelBackgroundColor=#ffffff;verticalAlign=top;aspect=fixed;imageAspect=0;image=https://www.python.jp/pages/python_logo2.png;labelBorderColor=none;" parent="1" vertex="1">
                    <mxGeometry x="190.58999999999997" y="111.5" width="70.91" height="30" as="geometry"/>
                </mxCell>
                <mxCell id="41" value="&lt;span&gt;・nfcpy&lt;/span&gt;&lt;br&gt;&lt;span&gt;・Requests&lt;/span&gt;" style="rounded=0;whiteSpace=wrap;html=1;labelBorderColor=none;fillColor=default;strokeColor=none;align=left;fontSize=8;horizontal=1;" parent="1" vertex="1">
                    <mxGeometry x="203.99999999999997" y="131" width="52.5" height="30" as="geometry"/>
                </mxCell>
                <mxCell id="40" value="" style="group;labelBorderColor=none;" parent="1" vertex="1" connectable="0">
                    <mxGeometry x="120" y="101" width="78.79000000000002" height="50" as="geometry"/>
                </mxCell>
                <mxCell id="30" value="" style="shape=image;verticalLabelPosition=bottom;labelBackgroundColor=#ffffff;verticalAlign=top;aspect=fixed;imageAspect=0;image=https://cdn.pixabay.com/photo/2021/06/03/11/06/apple-macbook-pro-6306818__340.png;labelBorderColor=none;" parent="40" vertex="1">
                    <mxGeometry width="78.79" height="50" as="geometry"/>
                </mxCell>
                <mxCell id="35" value="" style="shape=image;verticalLabelPosition=bottom;labelBackgroundColor=#ffffff;verticalAlign=top;aspect=fixed;imageAspect=0;image=https://getnavi.jp/wps/wp-content/uploads/2015/06/150609-1.jpg;labelBorderColor=none;" parent="40" vertex="1">
                    <mxGeometry x="10.31" y="8.610000000000001" width="58.18" height="32.79" as="geometry"/>
                </mxCell>
                <mxCell id="42" value="受付画面" style="rounded=0;whiteSpace=wrap;html=1;labelBorderColor=none;fillColor=default;strokeColor=none;align=left;fontSize=8;horizontal=1;" parent="1" vertex="1">
                    <mxGeometry x="220.5" y="105" width="42.5" height="2" as="geometry"/>
                </mxCell>
                <mxCell id="47" value="" style="group;labelBorderColor=none;" parent="1" vertex="1" connectable="0">
                    <mxGeometry x="117.99999999999997" y="184" width="140" height="51" as="geometry"/>
                </mxCell>
                <mxCell id="48" value="" style="rounded=0;whiteSpace=wrap;html=1;labelBorderColor=none;" parent="47" vertex="1">
                    <mxGeometry width="140" height="50" as="geometry"/>
                </mxCell>
                <mxCell id="52" value="" style="shape=image;verticalLabelPosition=bottom;labelBackgroundColor=#ffffff;verticalAlign=top;aspect=fixed;imageAspect=0;image=https://bitwave.showcase-tv.com/wp-content/uploads/2021/09/iphone13-pro-max-gold-11.jpeg;labelBorderColor=none;" parent="47" vertex="1">
                    <mxGeometry x="13.499999999999996" y="5" width="53.34" height="40" as="geometry"/>
                </mxCell>
                <mxCell id="51" value="スマホ画面" style="rounded=0;whiteSpace=wrap;html=1;labelBorderColor=none;fillColor=default;strokeColor=none;align=left;fontSize=8;horizontal=1;" parent="1" vertex="1">
                    <mxGeometry x="215.5" y="178" width="42.5" as="geometry"/>
                </mxCell>
                <mxCell id="31" value="" style="endArrow=block;startArrow=block;html=1;labelBorderColor=none;strokeColor=#000000;endFill=0;startFill=0;strokeWidth=1;dashed=1;dashPattern=1 1;" parent="1" edge="1">
                    <mxGeometry width="50" height="50" relative="1" as="geometry">
                        <mxPoint x="291" y="191" as="sourcePoint"/>
                        <mxPoint x="410" y="154" as="targetPoint"/>
                        <Array as="points">
                            <mxPoint x="410" y="190"/>
                        </Array>
                    </mxGeometry>
                </mxCell>
            </root>
        </mxGraphModel>
    </diagram>
</mxfile>